<svg xmlns="http://www.w3.org/2000/svg" xmlns:xlink="http://www.w3.org/1999/xlink" aria-hidden="true" role="img" class="iconify iconify--logos" width="31.88" height="32" preserveAspectRatio="xMidYMid meet" viewBox="0 0 256 257"><defs><linearGradient id="IconifyId1813088fe1fbc01fb466" x1="-.828%" x2="57.636%" y1="7.652%" y2="78.411%"><stop offset="0%" stop-color="#FF00DC"/><stop offset="100%" stop-color="#FF00D5"/></linearGradient><linearGradient id="IconifyId1813088fe1fbc01fb467" x1="43.376%" x2="50.316%" y1="2.242%" y2="89.03%"><stop offset="0%" stop-color="#FFEA83"/><stop offset="8.333%" stop-color="#FFDD35"/><stop offset="100%" stop-color="#FFA800"/></linearGradient></defs><path fill="url(#IconifyId1813088fe1fbc01fb466)" d="M128.001 0c-35.338 0-64.83 22.529-64.83 50.23c0 10.23 2.326 19.812 6.465 28.193C38.971 92.859 0 122.512 0 159.782c0 42.686 57.543 77.238 128.001 77.238c70.529 0 128.001-34.552 128.001-77.238c0-37.271-38.97-66.924-69.635-81.359c4.14-8.381 6.465-17.963 6.465-28.193c0-27.701-29.492-50.23-64.831-50.23z"/><path fill="url(#IconifyId1813088fe1fbc01fb467)" d="M97.258 145.686c10.264 0 18.584-8.25 18.584-18.427c0-10.177-8.32-18.426-18.584-18.426c-10.263 0-18.583 8.25-18.583 18.426c0 10.177 8.32 18.427 18.583 18.427zm36.571 0c10.264 0 18.584-8.25 18.584-18.427c0-10.177-8.32-18.426-18.584-18.426c-10.264 0-18.584 8.25-18.584 18.426c0 10.177 8.32 18.427 18.584 18.427zm36.571 0c10.264 0 18.584-8.25 18.584-18.427c0-10.177-8.32-18.426-18.584-18.426c-10.263 0-18.583 8.25-18.583 18.426c0 10.177 8.32 18.427 18.583 18.427z"/></svg>
